<?xml version="1.0" encoding="utf-8"?>
<!-- Generator: Adobe Illustrator 23.0.5, SVG Export Plug-In . SVG Version: 6.00 Build 0)  -->
<svg version="1.1" id="Layer_1" xmlns="http://www.w3.org/2000/svg" xmlns:xlink="http://www.w3.org/1999/xlink" x="0px" y="0px"
	 viewBox="0 0 720.55 121.37" style="enable-background:new 0 0 720.55 121.37;" xml:space="preserve">
<style type="text/css">
	.st0{clip-path:url(#SVGID_2_);}
	.st1{filter:url(#Adobe_OpacityMaskFilter);}
	.st2{fill:url(#SVGID_4_);}
	.st3{mask:url(#SVGID_3_);fill-rule:evenodd;clip-rule:evenodd;}
	.st4{fill:#FFFFFF;}
	.st5{clip-path:url(#SVGID_6_);fill:#FFFFFF;}
	.st6{filter:url(#Adobe_OpacityMaskFilter_1_);}
	.st7{fill:url(#SVGID_8_);}
	.st8{mask:url(#SVGID_7_);fill-rule:evenodd;clip-rule:evenodd;fill:#FFFFFF;}
	.st9{fill:#253451;}
	.st10{clip-path:url(#SVGID_10_);}
	.st11{clip-path:url(#SVGID_12_);}
	.st12{filter:url(#Adobe_OpacityMaskFilter_2_);}
	.st13{fill:url(#SVGID_16_);}
	.st14{mask:url(#SVGID_15_);fill-rule:evenodd;clip-rule:evenodd;fill:#FFFFFF;}
</style>
<g>
	<g>
		<path class="st4" d="M193.51,29.23c5.34,0,9.92,0.54,13.75,1.63c3.82,1.09,6.96,2.77,9.4,5.04c2.44,2.27,4.24,5.18,5.39,8.7
			c1.15,3.53,1.73,7.7,1.73,12.51v13.45c0,4.81-0.58,8.98-1.73,12.51c-1.15,3.53-2.95,6.43-5.39,8.7c-2.44,2.27-5.57,3.96-9.4,5.04
			c-3.82,1.09-8.41,1.63-13.75,1.63h-46.29c-1.98,0-2.97-0.99-2.97-2.97V32.2c0-1.98,0.99-2.97,2.97-2.97H193.51z M159.39,83.43
			c0,0.86,0.43,1.29,1.29,1.29h32.44c2.9,0,5.34-0.26,7.32-0.79c1.98-0.53,3.58-1.38,4.8-2.57c1.22-1.19,2.09-2.77,2.62-4.75
			c0.53-1.98,0.79-4.42,0.79-7.32V58.41c0-2.9-0.26-5.34-0.79-7.32c-0.53-1.98-1.4-3.56-2.62-4.75c-1.22-1.19-2.82-2.04-4.8-2.57
			c-1.98-0.53-4.42-0.79-7.32-0.79h-32.44c-0.86,0-1.29,0.46-1.29,1.38V83.43z"/>
		<path class="st4" d="M249.09,29.23c1.45,0,2.18,0.73,2.18,2.18v64.88c0,1.45-0.73,2.18-2.18,2.18h-10.68
			c-1.52,0-2.27-0.72-2.27-2.18V31.41c0-1.45,0.76-2.18,2.27-2.18H249.09z"/>
		<path class="st4" d="M334.84,29.23c1.52,0,2.27,0.73,2.27,2.18v9.4c0,1.45-0.76,2.18-2.27,2.18h-43.22c-2.57,0-4.7,0.21-6.38,0.64
			c-1.68,0.43-3.03,1.15-4.05,2.18c-1.02,1.02-1.73,2.41-2.13,4.15c-0.4,1.75-0.59,3.91-0.59,6.48v0.99h55.88
			c1.45,0,2.18,0.73,2.18,2.18v7.81c0,1.45-0.73,2.18-2.18,2.18h-55.88v1.68c0,2.57,0.2,4.73,0.59,6.48c0.4,1.75,1.1,3.13,2.13,4.15
			c1.02,1.02,2.37,1.75,4.05,2.18c1.68,0.43,3.81,0.64,6.38,0.64h43.22c1.52,0,2.27,0.73,2.27,2.18v9.4c0,1.45-0.76,2.18-2.27,2.18
			h-43.52c-5.01,0-9.26-0.46-12.76-1.38c-3.5-0.92-6.35-2.42-8.56-4.5c-2.21-2.08-3.82-4.78-4.85-8.11
			c-1.02-3.33-1.53-7.37-1.53-12.12V55.34c0-4.75,0.51-8.77,1.53-12.07c1.02-3.3,2.64-5.98,4.85-8.06c2.21-2.08,5.06-3.59,8.56-4.55
			c3.49-0.95,7.75-1.43,12.76-1.43H334.84z"/>
		<path class="st4" d="M366.09,29.23c1.58,0,2.9,0.07,3.96,0.2c1.05,0.13,1.98,0.41,2.77,0.84c0.79,0.43,1.55,1.02,2.27,1.78
			c0.72,0.76,1.55,1.76,2.47,3.02l36.79,48.26c0.26,0.46,0.69,0.69,1.29,0.69h0.89c0.53,0,0.79-0.33,0.79-0.99V31.41
			c0-1.45,0.72-2.18,2.18-2.18h10.38c1.45,0,2.18,0.73,2.18,2.18v56.77c0,4.02-0.73,6.74-2.18,8.16c-1.45,1.42-3.69,2.13-6.73,2.13
			h-8.51c-1.52,0-2.79-0.06-3.81-0.2c-1.02-0.13-1.93-0.4-2.72-0.79c-0.79-0.4-1.57-0.97-2.32-1.73c-0.76-0.76-1.63-1.8-2.62-3.11
			l-36.89-48.26c-0.4-0.46-0.82-0.69-1.29-0.69h-0.89c-0.53,0-0.79,0.33-0.79,0.99v51.63c0,1.45-0.73,2.18-2.18,2.18h-10.39
			c-1.52,0-2.27-0.72-2.27-2.18V39.52c0-4.02,0.73-6.74,2.18-8.16c1.45-1.42,3.69-2.13,6.73-2.13H366.09z"/>
		<path class="st4" d="M513.95,29.23c1.45,0,2.18,0.73,2.18,2.18v9.4c0,1.45-0.73,2.18-2.18,2.18H464.4c-1.91,0-3.26,0.49-4.05,1.48
			c-0.79,0.99-1.19,2.34-1.19,4.05v3.36c0,3.69,1.71,5.54,5.14,5.54h37.09c5.74,0,10.05,1.47,12.96,4.4
			c2.9,2.93,4.35,7.14,4.35,12.61v7.91c0,4.81-1.42,8.7-4.25,11.67c-2.84,2.97-7.25,4.45-13.25,4.45H446.4
			c-1.52,0-2.27-0.72-2.27-2.18v-9.4c0-1.45,0.76-2.18,2.27-2.18h51.92c1.91,0,3.26-0.49,4.05-1.48c0.79-0.99,1.19-2.34,1.19-4.05
			v-4.05c0-3.69-1.71-5.54-5.14-5.54h-37.09c-5.74,0-10.06-1.47-12.96-4.4c-2.9-2.93-4.35-7.14-4.35-12.61v-7.22
			c0-4.81,1.42-8.7,4.25-11.67c2.83-2.97,7.25-4.45,13.25-4.45H513.95z"/>
		<path class="st4" d="M605.23,29.23c1.52,0,2.27,0.73,2.27,2.18v9.69c0,1.52-0.76,2.27-2.27,2.27h-31.05v52.91
			c0,1.45-0.73,2.18-2.18,2.18h-10.78c-1.45,0-2.18-0.72-2.18-2.18V43.37h-31.06c-1.52,0-2.27-0.76-2.27-2.27v-9.69
			c0-1.45,0.76-2.18,2.27-2.18H605.23z"/>
		<path class="st4" d="M701.27,29.23c6.79,0,11.62,1.35,14.49,4.06c2.87,2.7,4.3,6.79,4.3,12.26v4.75c0,5.47-1.95,9.66-5.84,12.56
			c4.22,2.7,6.33,6.96,6.33,12.76v5.74c0,2.64-0.3,5.01-0.89,7.12c-0.59,2.11-1.58,3.91-2.97,5.39s-3.2,2.62-5.44,3.41
			c-2.24,0.79-4.98,1.19-8.21,1.19h-53.01c-1.45,0-2.18-0.72-2.18-2.18v-8.8c0-1.45,0.73-2.18,2.18-2.18h48.56
			c2.57,0,4.43-0.49,5.59-1.48c1.15-0.99,1.73-2.54,1.73-4.65v-3.66c0-2.04-0.61-3.61-1.83-4.7c-1.22-1.09-3.48-1.63-6.77-1.63
			h-46.68c-1.52,0-2.27-0.73-2.27-2.18v-7.02c0-1.45,0.76-2.18,2.27-2.18h46.68c3.3,0,5.54-0.51,6.73-1.53
			c1.19-1.02,1.78-2.49,1.78-4.4v-3.46c0-2.11-0.58-3.64-1.73-4.6c-1.15-0.96-3.05-1.43-5.69-1.43h-48.36
			c-1.45,0-2.18-0.72-2.18-2.18v-8.8c0-1.45,0.73-2.18,2.18-2.18H701.27z"/>
	</g>
	<g>
		<g>
			<g>
				<defs>
					<path id="SVGID_5_" d="M11.35,7.33h4.35c1.35,0,2.46,1.11,2.46,2.46v4.35c0,1.35-1.11,2.46-2.46,2.46h-4.35
						c-1.35,0-2.46-1.11-2.46-2.46V9.79C8.89,8.43,10,7.33,11.35,7.33 M12.35,46.73h8.11c2.52,0,4.58,2.06,4.58,4.58v8.11
						c0,2.52-2.06,4.58-4.58,4.58h-8.11c-2.52,0-4.58-2.06-4.58-4.58v-8.11C7.77,48.79,9.83,46.73,12.35,46.73z M3.41,26.12h6.05
						c1.88,0,3.41,1.54,3.41,3.41v6.05c0,1.88-1.54,3.41-3.41,3.41H3.41C1.54,39,0,37.46,0,35.58v-6.05
						C0,27.66,1.54,26.12,3.41,26.12z M33.09,0.94H50.7c4.7,0,8.55,3.84,8.55,8.55v15.13c0,4.7-3.85,8.55-8.55,8.55H33.09
						c-4.7,0-8.55-3.85-8.55-8.55V9.48C24.54,4.78,28.39,0.94,33.09,0.94z M41.31,47.65h12.24c3.81,0,6.92,3.11,6.92,6.92v12.24
						c0,3.81-3.11,6.92-6.92,6.92H41.31c-3.81,0-6.92-3.11-6.92-6.92V54.56C34.39,50.76,37.5,47.65,41.31,47.65z M118.06,37.21
						C118.06,16.74,101.32,0,80.86,0h-21.6c2.24,1.9,3.66,4.73,3.66,7.89v18.32c0,3.15-1.43,5.98-3.66,7.89h0.65
						c8.97,0,16.31,7.34,16.31,16.31v20.58c0,8.97-7.34,16.31-16.31,16.31H30.8v34.09h50.05c20.47,0,37.21-16.74,37.21-37.21V37.21z
						"/>
				</defs>
				<use xlink:href="#SVGID_5_"  style="overflow:visible;fill:#FFFFFF;"/>
				<clipPath id="SVGID_2_">
					<use xlink:href="#SVGID_5_"  style="overflow:visible;"/>
				</clipPath>
				<rect x="0" style="clip-path:url(#SVGID_2_);fill:#FFFFFF;" width="118.06" height="121.37"/>
			</g>
			<defs>
				<filter id="Adobe_OpacityMaskFilter" filterUnits="userSpaceOnUse" x="30.8" y="0" width="87.26" height="121.37">
					<feColorMatrix  type="matrix" values="1 0 0 0 0  0 1 0 0 0  0 0 1 0 0  0 0 0 1 0"/>
				</filter>
			</defs>
			<mask maskUnits="userSpaceOnUse" x="30.8" y="0" width="87.26" height="121.37" id="SVGID_3_">
				<g class="st1">
					
						<linearGradient id="SVGID_4_" gradientUnits="userSpaceOnUse" x1="-301.7983" y1="510.0779" x2="-424.9631" y2="537.5717" gradientTransform="matrix(1 0 0 1 498.8971 -476.7755)">
						<stop  offset="0" style="stop-color:#FFFFFF"/>
						<stop  offset="1" style="stop-color:#000000"/>
					</linearGradient>
					<rect x="30.8" class="st2" width="87.26" height="121.37"/>
				</g>
			</mask>
			<path style="mask:url(#SVGID_3_);fill-rule:evenodd;clip-rule:evenodd;fill:#FFFFFF;" d="M97.03,44.47v36.25
				c0,15.08-12.34,27.42-27.42,27.42H30.8v13.22h50.05c20.47,0,37.21-16.74,37.21-37.21V37.21C118.06,16.74,101.32,0,80.86,0h-21.6
				c2.24,1.9,3.66,4.73,3.66,7.89v9.16h6.69C84.69,17.05,97.03,29.39,97.03,44.47"/>
		</g>
	</g>
</g>
</svg>
